<svg width="182" height="49" viewBox="0 0 182 49" fill="none" xmlns="http://www.w3.org/2000/svg">
<path d="M14.1003 18.018C14.203 17.9975 14.3366 17.9872 14.5009 17.9872C15.1171 17.9872 15.5998 18.1721 15.949 18.5418C16.2982 18.891 16.4728 19.3737 16.4728 19.99C16.4728 21.0581 15.9182 21.7051 14.809 21.9311C13.8847 22.116 12.1592 22.2084 9.63264 22.2084H8.64667C7.5169 22.2084 6.4385 22.1776 5.41144 22.116C4.40493 22.0543 3.16219 21.9311 1.68323 21.7462C0.779419 21.623 0.327515 21.0067 0.327515 19.8975C0.327515 19.3634 0.43022 18.9218 0.635632 18.5726C0.841043 18.2029 1.15943 17.9975 1.59079 17.9564H1.89891C2.1454 16.2926 2.24811 14.6903 2.20703 13.1498H1.99134C1.49836 13.1498 1.12862 12.9854 0.882125 12.6568C0.656173 12.3076 0.543197 11.794 0.543197 11.1162C0.543197 10.541 0.656173 10.0686 0.882125 9.69886C1.12862 9.32912 1.48809 9.14424 1.96053 9.14424H2.20703C2.22757 8.38422 2.23784 6.93608 2.23784 4.7998C1.53944 4.51223 1.19024 3.9268 1.19024 3.04354C1.19024 2.38622 1.36484 1.91377 1.71404 1.6262C2.06324 1.31808 2.60758 1.12294 3.34706 1.04078C4.35357 0.938071 6.18173 0.886719 8.83154 0.886719C11.3992 0.886719 13.3609 0.968883 14.7166 1.13321C15.3328 1.19484 15.8052 1.37971 16.1339 1.68782C16.4831 1.9754 16.6577 2.4273 16.6577 3.04354C16.6577 3.65977 16.5036 4.16303 16.1955 4.55331C15.8874 4.92305 15.4663 5.08738 14.9322 5.04629C13.0425 4.88197 11.3786 4.7998 9.94076 4.7998C9.28344 4.7998 8.44125 4.82034 7.4142 4.86142L6.6131 4.89223L6.70553 9.20587H7.4142C8.44125 9.20587 9.69426 9.22641 11.1732 9.26749L13.1452 9.32912C13.9463 9.32912 14.3468 9.97616 14.3468 11.2703C14.3468 11.8865 14.2236 12.3692 13.9771 12.7184C13.7511 13.0676 13.4225 13.2422 12.9911 13.2422C12.3749 13.2422 11.8511 13.2319 11.4197 13.2114L7.4142 13.1806H6.73634C6.69526 15.0293 6.57201 16.6931 6.3666 18.1721C7.14716 18.2542 8.12287 18.2953 9.29371 18.2953C10.9986 18.2953 12.6008 18.2029 14.1003 18.018Z" fill="#E2E7E9"/>
<path d="M44.6922 22.5165C43.1722 22.5165 41.8062 22.1981 40.5943 21.5613C39.4029 20.9246 38.4683 20.031 37.7904 18.8807C37.1331 17.7304 36.8044 16.4055 36.8044 14.906C36.8044 13.3654 37.1536 11.9686 37.852 10.7156C38.5504 9.44209 39.5159 8.44585 40.7483 7.72691C42.0013 6.98743 43.4084 6.61769 44.9695 6.61769C46.6334 6.61769 48.1123 7.01824 49.4064 7.81934C50.721 8.62045 51.6249 9.65777 52.1178 10.9313C52.2822 11.3216 52.3643 11.6605 52.3643 11.9481C52.3643 12.626 51.8919 13.0779 50.947 13.3038C50.68 13.3654 50.4335 13.3963 50.2075 13.3963C49.7967 13.3963 49.4578 13.2935 49.1907 13.0881C48.9442 12.8622 48.6669 12.5027 48.3588 12.0097C47.9685 11.414 47.5269 10.9416 47.0339 10.5924C46.5409 10.2227 45.935 10.0378 45.216 10.0378C44.0657 10.0378 43.1208 10.5102 42.3814 11.4551C41.6419 12.3795 41.2721 13.5503 41.2721 14.9676C41.2721 16.2617 41.6008 17.2785 42.2581 18.018C42.936 18.7369 43.9117 19.0964 45.1852 19.0964C46.3971 19.0964 47.2907 18.7883 47.8658 18.1721C48.4615 17.5353 48.7594 16.7958 48.7594 15.9536C48.7594 15.625 48.9237 15.3271 49.2524 15.0601C49.6016 14.7725 50.0637 14.6287 50.6389 14.6287C51.3373 14.6287 51.8611 14.7622 52.2103 15.0293C52.58 15.2963 52.7649 15.7688 52.7649 16.4466C52.7649 17.4737 52.4978 18.4494 51.9638 19.3737C51.4297 20.2981 50.5567 21.0581 49.3448 21.6538C48.1534 22.2289 46.6025 22.5165 44.6922 22.5165Z" fill="#E2E7E9"/>
<path d="M70.4402 19.0656C70.8305 19.1272 71.1283 19.271 71.3337 19.497C71.5597 19.7229 71.6727 20.1235 71.6727 20.6986C71.6727 21.1916 71.5391 21.6127 71.2721 21.9619C71.0256 22.3111 70.6867 22.4857 70.2553 22.4857C69.3721 22.4857 68.6942 22.383 68.2217 22.1776C67.7493 21.9516 67.3179 21.5511 66.9277 20.9759C66.4758 21.6538 65.8595 22.1365 65.079 22.4241C64.2984 22.6911 63.3843 22.8246 62.3367 22.8246C60.0156 22.8246 58.249 22.157 57.0371 20.8219C55.8252 19.4867 55.2192 17.6277 55.2192 15.245C55.2192 13.6838 55.5376 12.2973 56.1744 11.0854C56.8112 9.87345 57.6944 8.92856 58.8242 8.25071C59.9745 7.57285 61.2891 7.23392 62.7681 7.23392C63.5076 7.23392 64.1957 7.37771 64.8325 7.66528C65.4692 7.95286 65.952 8.33287 66.2806 8.80532L66.3422 8.40477C66.3833 8.11719 66.5476 7.88097 66.8352 7.6961C67.1228 7.49069 67.5747 7.38798 68.1909 7.38798C68.8483 7.38798 69.331 7.5215 69.6391 7.78853C69.9472 8.05557 70.1013 8.3945 70.1013 8.80532C70.1013 8.94911 70.091 9.06208 70.0704 9.14424C69.9472 9.84264 69.824 11.0135 69.7007 12.6568C69.6391 13.4168 69.6083 14.3925 69.6083 15.5839V17.1245C69.6083 17.7202 69.6596 18.1823 69.7623 18.511C69.865 18.8191 70.091 19.004 70.4402 19.0656ZM65.2946 16.9396C65.3152 16.0974 65.3255 14.7931 65.3255 13.0265C65.3255 12.3281 65.0892 11.7632 64.6168 11.3319C64.1649 10.88 63.5795 10.654 62.8605 10.654C61.9362 10.654 61.1761 11.0854 60.5805 11.9481C59.9848 12.7903 59.6869 13.879 59.6869 15.2141C59.6869 16.4877 59.9539 17.5045 60.488 18.2645C61.0221 19.0245 61.741 19.4045 62.6448 19.4045C63.487 19.4045 64.1341 19.1991 64.586 18.7883C65.0379 18.3569 65.2741 17.7407 65.2946 16.9396Z" fill="#E2E7E9"/>
<path d="M83.3582 6.74093C85.1658 6.74093 86.5626 7.37771 87.5486 8.65126C88.5551 9.90427 89.0584 11.7632 89.0584 14.2282L89.0276 21.1916C89.0276 21.623 88.8119 21.9516 88.3805 22.1776C87.9697 22.4035 87.4562 22.5165 86.8399 22.5165C86.2442 22.5165 85.7102 22.4138 85.2377 22.2084C84.7858 22.003 84.5599 21.7154 84.5599 21.3457L84.5907 14.1974C84.5907 12.6979 84.4264 11.6503 84.0977 11.0546C83.769 10.4589 83.2555 10.161 82.5571 10.161C81.9614 10.161 81.489 10.4281 81.1398 10.9621C80.7906 11.4962 80.4927 12.5335 80.2462 14.0741C80.1025 14.9368 80.0306 15.892 80.0306 16.9396L80.0614 20.9143C80.0614 21.4484 79.856 21.8592 79.4451 22.1468C79.0549 22.4138 78.5208 22.5473 77.8429 22.5473C77.1445 22.5473 76.5899 22.4035 76.1791 22.116C75.7888 21.8284 75.5937 21.4278 75.5937 20.9143C75.5937 16.6418 75.5321 13.3141 75.4088 10.9313C75.3883 10.6848 75.3266 10.4589 75.2239 10.2535C75.1418 10.0275 75.0391 9.8221 74.9158 9.63723C74.7926 9.45236 74.7001 9.30857 74.6385 9.20587C74.5153 8.97992 74.4537 8.75396 74.4537 8.52801C74.4537 8.09665 74.7001 7.6961 75.1931 7.32636C75.7067 6.93608 76.1996 6.74093 76.6721 6.74093C76.898 6.74093 77.1137 6.81283 77.3191 6.95662C77.5451 7.10041 77.7916 7.33663 78.0586 7.66528C78.2846 7.95286 78.4489 8.20963 78.5516 8.43558C78.6543 8.66153 78.7057 8.91829 78.7057 9.20587V9.48317C79.0754 8.70261 79.63 8.05557 80.3695 7.54204C81.1295 7.00797 82.1258 6.74093 83.3582 6.74093Z" fill="#E2E7E9"/>
<path d="M101.421 16.3542C102.098 16.3542 102.591 16.4877 102.9 16.7547C103.208 17.0218 103.362 17.4531 103.362 18.0488C103.362 19.4045 102.93 20.4932 102.068 21.3149C101.205 22.1365 100.116 22.5473 98.8016 22.5473C97.0145 22.5473 95.7102 21.8284 94.8885 20.3905C94.0669 18.9321 93.6561 16.6315 93.6561 13.4887C93.6561 12.5438 93.6663 11.8557 93.6869 11.4243C93.5431 11.4038 93.3069 11.3935 92.9782 11.3935C91.8074 11.373 91.2219 10.8081 91.2219 9.69886C91.2219 9.1237 91.3657 8.69234 91.6533 8.40477C91.9614 8.11719 92.4955 7.98367 93.2555 8.00421L93.9334 8.03503C94.0772 6.76148 94.3134 5.20035 94.642 3.35165C94.7242 2.85867 94.9501 2.48893 95.3199 2.24243C95.7102 1.9754 96.2031 1.84188 96.7988 1.84188C97.4972 1.84188 98.0416 2.00621 98.4319 2.33487C98.8222 2.66353 99.0173 3.06408 99.0173 3.53652L98.9865 3.78301L98.8324 4.76899C98.5859 6.45336 98.4216 7.60366 98.3394 8.21989C99.0378 8.26098 99.5719 8.28152 99.9416 8.28152C100.989 8.30206 101.513 8.8464 101.513 9.91454C101.513 10.4486 101.369 10.8492 101.082 11.1162C100.794 11.3832 100.311 11.5167 99.6335 11.5167H98.0929C98.0724 11.9276 98.0621 12.5849 98.0621 13.4887C98.0621 15.0087 98.0929 16.1796 98.1546 17.0012C98.2367 17.8023 98.3497 18.3467 98.4935 18.6342C98.6373 18.9218 98.8222 19.0656 99.0481 19.0656C99.3357 19.0656 99.5206 18.9732 99.6027 18.7883C99.6849 18.6034 99.726 18.2748 99.726 17.8023C99.726 16.8369 100.291 16.3542 101.421 16.3542Z" fill="#E2E7E9"/>
<path d="M113.725 22.5781C111.116 22.5781 109.041 21.9003 107.501 20.5446C105.981 19.1683 105.221 17.2477 105.221 14.7828C105.221 13.1806 105.56 11.753 106.238 10.5C106.915 9.24695 107.871 8.27125 109.103 7.57285C110.356 6.87445 111.825 6.52525 113.509 6.52525C115.214 6.52525 116.714 6.88472 118.008 7.60366C119.302 8.3226 120.298 9.32912 120.996 10.6232C121.715 11.8968 122.075 13.3552 122.075 14.9985C122.075 17.4018 121.325 19.271 119.826 20.6062C118.326 21.9208 116.292 22.5781 113.725 22.5781ZM113.663 19.158C114.916 19.158 115.882 18.8088 116.559 18.1104C117.258 17.3915 117.607 16.3336 117.607 14.9368C117.607 13.5606 117.268 12.3897 116.59 11.4243C115.933 10.4383 114.957 9.94535 113.663 9.94535C112.451 9.94535 111.486 10.387 110.767 11.2703C110.048 12.1535 109.688 13.3346 109.688 14.8136C109.688 16.2515 110.038 17.3401 110.736 18.0796C111.434 18.7986 112.41 19.158 113.663 19.158Z" fill="#E2E7E9"/>
<path d="M130.746 22.763C129.329 22.763 128.065 22.4343 126.956 21.777C125.847 21.0992 125.056 20.2056 124.584 19.0964C124.46 18.7883 124.399 18.5315 124.399 18.3261C124.399 17.8948 124.625 17.4839 125.077 17.0937C125.528 16.7034 126.021 16.5082 126.555 16.5082C126.864 16.5082 127.11 16.5801 127.295 16.7239C127.48 16.8472 127.624 16.9704 127.726 17.0937C127.829 17.1964 127.891 17.2683 127.911 17.3093C128.507 18.0077 129 18.5007 129.39 18.7883C129.78 19.0759 130.253 19.2197 130.807 19.2197C131.321 19.2197 131.763 19.117 132.132 18.9115C132.502 18.6856 132.687 18.3775 132.687 17.9872C132.687 17.5558 132.471 17.2169 132.04 16.9704C131.609 16.7239 130.91 16.4466 129.945 16.1385C128.877 15.7688 128.004 15.4196 127.326 15.0909C126.668 14.7622 126.083 14.2795 125.569 13.6427C125.076 12.9854 124.83 12.1535 124.83 11.147C124.83 10.1405 125.118 9.27776 125.693 8.55882C126.268 7.81934 127.028 7.25446 127.973 6.86418C128.938 6.4739 129.976 6.27876 131.085 6.27876C132.276 6.27876 133.303 6.50471 134.166 6.95662C135.049 7.38798 135.717 7.9734 136.169 8.71288C136.621 9.43182 136.847 10.2021 136.847 11.0238C136.847 11.5784 136.692 11.9995 136.384 12.287C136.076 12.5746 135.563 12.7184 134.844 12.7184C134.207 12.7184 133.765 12.6157 133.519 12.4103C133.293 12.2049 133.149 11.9173 133.088 11.5476C133.026 11.034 132.862 10.6232 132.595 10.3151C132.348 10.007 131.845 9.85291 131.085 9.85291C130.51 9.85291 130.058 9.95562 129.729 10.161C129.421 10.3664 129.267 10.654 129.267 11.0238C129.267 11.4757 129.483 11.8249 129.914 12.0714C130.366 12.3178 131.085 12.5849 132.071 12.8725C133.118 13.2011 133.981 13.5298 134.659 13.8584C135.337 14.1665 135.922 14.639 136.415 15.2758C136.908 15.892 137.155 16.7136 137.155 17.7407C137.155 18.9115 136.826 19.877 136.169 20.637C135.511 21.397 134.69 21.9414 133.704 22.27C132.718 22.5987 131.732 22.763 130.746 22.763Z" fill="#E2E7E9"/>
<path d="M49.2493 47.9772C48.5919 47.9772 48.0476 47.8129 47.6162 47.4842C47.1849 47.1556 46.9795 46.7139 47 46.1593L47.2465 34.7898C47.267 34.2352 47.4827 33.8038 47.8936 33.4957C48.3044 33.1671 48.8384 33.0027 49.4958 33.0027C50.1736 33.0027 50.7282 33.1671 51.1596 33.4957C51.591 33.8244 51.7964 34.2763 51.7758 34.8514L51.5293 46.1901C51.5088 46.7448 51.2828 47.1864 50.8515 47.515C50.4407 47.8232 49.9066 47.9772 49.2493 47.9772Z" fill="#E2E7E9"/>
<path d="M65.6993 42.0306C66.3772 42.0306 66.8702 42.1641 67.1783 42.4311C67.4864 42.6981 67.6405 43.1295 67.6405 43.7252C67.6405 45.0809 67.2091 46.1696 66.3464 46.9912C65.4836 47.8129 64.395 48.2237 63.0803 48.2237C61.2933 48.2237 59.9889 47.5048 59.1673 46.0669C58.3456 44.6085 57.9348 42.3079 57.9348 39.1651C57.9348 38.2202 57.9451 37.5321 57.9656 37.1007C57.8218 37.0802 57.5856 37.0699 57.2569 37.0699C56.0861 37.0493 55.5007 36.4845 55.5007 35.3752C55.5007 34.8001 55.6445 34.3687 55.932 34.0812C56.2401 33.7936 56.7742 33.6601 57.5342 33.6806L58.2121 33.7114C58.3559 32.4379 58.5921 30.8767 58.9208 29.028C59.0029 28.5351 59.2289 28.1653 59.5986 27.9188C59.9889 27.6518 60.4819 27.5183 61.0776 27.5183C61.776 27.5183 62.3203 27.6826 62.7106 28.0113C63.1009 28.3399 63.296 28.7405 63.296 29.2129L63.2652 29.4594L63.1111 30.4454C62.8647 32.1297 62.7003 33.2801 62.6182 33.8963C63.3166 33.9374 63.8506 33.9579 64.2204 33.9579C65.268 33.9784 65.7918 34.5228 65.7918 35.5909C65.7918 36.125 65.648 36.5255 65.3604 36.7926C65.0728 37.0596 64.5901 37.1931 63.9122 37.1931H62.3717C62.3511 37.604 62.3409 38.2613 62.3409 39.1651C62.3409 40.6851 62.3717 41.856 62.4333 42.6776C62.5155 43.4787 62.6284 44.0231 62.7722 44.3106C62.916 44.5982 63.1009 44.742 63.3268 44.742C63.6144 44.742 63.7993 44.6496 63.8814 44.4647C63.9636 44.2798 64.0047 43.9512 64.0047 43.4787C64.0047 42.5133 64.5696 42.0306 65.6993 42.0306Z" fill="#E2E7E9"/>
<path d="M78.3733 48.4702C76.504 48.4702 74.9224 48.121 73.6283 47.4226C72.3547 46.7242 71.3996 45.7588 70.7628 44.5263C70.126 43.2938 69.8076 41.897 69.8076 40.3359C69.8076 38.7748 70.1671 37.3883 70.886 36.1763C71.6255 34.9439 72.6218 33.9887 73.8748 33.3109C75.1483 32.633 76.5656 32.2941 78.1268 32.2941C79.5236 32.2941 80.7971 32.5714 81.9474 33.126C83.1183 33.6806 84.0324 34.4817 84.6897 35.5293C85.3675 36.5564 85.7064 37.7683 85.7064 39.1651C85.7064 40.0483 85.5421 40.6851 85.2135 41.0754C84.9053 41.4451 84.3713 41.63 83.6112 41.63H73.6591C73.6591 42.123 73.8337 42.6263 74.1829 43.1398C74.5321 43.6328 75.0559 44.0539 75.7543 44.4031C76.4527 44.7523 77.2846 44.9269 78.25 44.9269C79.1127 44.9269 79.7906 44.8036 80.2836 44.5571C80.7766 44.2901 81.2901 43.8998 81.8242 43.3863C82.2145 43.0371 82.615 42.8625 83.0258 42.8625C83.4983 42.8625 83.9399 43.0473 84.3507 43.4171C84.7616 43.7663 84.967 44.1668 84.967 44.6187C84.967 44.9885 84.8437 45.348 84.5972 45.6971C84.1659 46.375 83.4367 47.0118 82.4096 47.6075C81.3825 48.1826 80.0371 48.4702 78.3733 48.4702ZM81.6393 38.857C81.8242 38.857 81.9372 38.8262 81.9782 38.7645C82.0399 38.7029 82.0707 38.5899 82.0707 38.4256C82.0707 37.6245 81.6804 36.9569 80.8998 36.4228C80.1398 35.8888 79.1949 35.6217 78.0652 35.6217C77.1613 35.6217 76.3705 35.7963 75.6926 36.1455C75.0353 36.4947 74.5321 36.9261 74.1829 37.4396C73.8337 37.9326 73.6591 38.4051 73.6591 38.857H81.6393Z" fill="#E2E7E9"/>
<path d="M97.3133 32.1708C98.1349 32.1708 98.895 32.366 99.5934 32.7563C100.292 33.126 100.846 33.6601 101.257 34.3585C101.668 35.0569 101.873 35.8682 101.873 36.7926C101.873 38.1278 101.432 39.1651 100.549 39.9046C99.6858 40.6235 98.5663 40.983 97.19 40.983C96.4711 40.983 95.9679 40.8803 95.6803 40.6748C95.3927 40.4489 95.2489 40.0792 95.2489 39.5656C95.2489 39.0726 95.3516 38.7337 95.557 38.5488C95.7624 38.3434 96.05 38.2202 96.4198 38.1791C97.6317 38.0559 98.2376 37.5526 98.2376 36.6693C98.2376 36.2996 98.1452 36.0223 97.9603 35.8374C97.796 35.632 97.5598 35.5293 97.2517 35.5293C96.6971 35.5293 96.1835 35.8477 95.7111 36.4845C95.2387 37.1007 94.8484 37.8299 94.5402 38.6721C94.2321 39.4937 94.037 40.1921 93.9548 40.7673C93.811 41.6711 93.7391 43.2733 93.7391 45.5739C93.7391 46.6831 93.5748 47.4431 93.2462 47.854C92.938 48.2442 92.3834 48.4394 91.5823 48.4394C90.8429 48.4394 90.278 48.2956 89.8877 48.008C89.5179 47.7205 89.3228 47.2788 89.3023 46.6831V41.6916C89.3023 40.377 89.2715 39.2678 89.2098 38.364C89.1482 37.4396 89.0455 36.2585 88.9017 34.8206L88.7785 33.5574C88.7374 33.0438 88.9017 32.6227 89.2715 32.2941C89.6617 31.9654 90.1958 31.8011 90.8737 31.8011C92.024 31.8011 92.6402 32.3146 92.7224 33.3417C92.7634 33.8347 92.8045 34.5331 92.8456 35.4369C93.2564 34.4714 93.8316 33.6909 94.5711 33.0952C95.3311 32.4789 96.2452 32.1708 97.3133 32.1708Z" fill="#E2E7E9"/>
<path d="M119.451 44.742C119.841 44.8036 120.139 44.9474 120.345 45.1734C120.57 45.3993 120.683 45.7999 120.683 46.375C120.683 46.868 120.55 47.2891 120.283 47.6383C120.036 47.9875 119.697 48.1621 119.266 48.1621C118.383 48.1621 117.705 48.0594 117.233 47.854C116.76 47.628 116.329 47.2275 115.938 46.6523C115.487 47.3302 114.87 47.8129 114.09 48.1005C113.309 48.3675 112.395 48.501 111.348 48.501C109.026 48.501 107.26 47.8334 106.048 46.4983C104.836 45.1631 104.23 43.3041 104.23 40.9213C104.23 39.3602 104.548 37.9737 105.185 36.7618C105.822 35.5498 106.705 34.605 107.835 33.9271C108.985 33.2492 110.3 32.9103 111.779 32.9103C112.518 32.9103 113.207 33.0541 113.843 33.3417C114.48 33.6292 114.963 34.0093 115.291 34.4817L115.353 34.0812C115.394 33.7936 115.558 33.5574 115.846 33.3725C116.134 33.1671 116.586 33.0644 117.202 33.0644C117.859 33.0644 118.342 33.1979 118.65 33.4649C118.958 33.732 119.112 34.0709 119.112 34.4817C119.112 34.6255 119.102 34.7385 119.081 34.8206C118.958 35.519 118.835 36.6899 118.712 38.3332C118.65 39.0932 118.619 40.0689 118.619 41.2603V42.8009C118.619 43.3965 118.67 43.8587 118.773 44.1874C118.876 44.4955 119.102 44.6804 119.451 44.742ZM114.305 42.616C114.326 41.7738 114.336 40.4694 114.336 38.7029C114.336 38.0045 114.1 37.4396 113.628 37.0083C113.176 36.5564 112.59 36.3304 111.871 36.3304C110.947 36.3304 110.187 36.7618 109.591 37.6245C108.996 38.4667 108.698 39.5554 108.698 40.8905C108.698 42.1641 108.965 43.1809 109.499 43.9409C110.033 44.7009 110.752 45.0809 111.656 45.0809C112.498 45.0809 113.145 44.8755 113.597 44.4647C114.049 44.0333 114.285 43.4171 114.305 42.616ZM110.516 31.2157C110.084 31.2157 109.725 31.0719 109.437 30.7843C109.15 30.4762 109.006 30.1064 109.006 29.6751C109.006 29.4286 109.057 29.1718 109.16 28.9048C109.263 28.6378 109.406 28.4221 109.591 28.2577L112.457 25.6388C112.847 25.269 113.155 25.0123 113.381 24.8685C113.628 24.7247 113.895 24.6528 114.182 24.6528C114.634 24.6528 115.014 24.8068 115.322 25.115C115.63 25.4231 115.784 25.8134 115.784 26.2858C115.784 26.5939 115.713 26.8815 115.569 27.1485C115.445 27.4156 115.281 27.6415 115.076 27.8264L111.995 30.4762C111.707 30.7432 111.45 30.9384 111.224 31.0616C110.998 31.1643 110.762 31.2157 110.516 31.2157Z" fill="#E2E7E9"/>
<path d="M132.307 32.1708C133.129 32.1708 133.889 32.366 134.587 32.7563C135.286 33.126 135.84 33.6601 136.251 34.3585C136.662 35.0569 136.868 35.8682 136.868 36.7926C136.868 38.1278 136.426 39.1651 135.543 39.9046C134.68 40.6235 133.56 40.983 132.184 40.983C131.465 40.983 130.962 40.8803 130.674 40.6748C130.387 40.4489 130.243 40.0792 130.243 39.5656C130.243 39.0726 130.346 38.7337 130.551 38.5488C130.757 38.3434 131.044 38.2202 131.414 38.1791C132.626 38.0559 133.232 37.5526 133.232 36.6693C133.232 36.2996 133.139 36.0223 132.954 35.8374C132.79 35.632 132.554 35.5293 132.246 35.5293C131.691 35.5293 131.178 35.8477 130.705 36.4845C130.233 37.1007 129.842 37.8299 129.534 38.6721C129.226 39.4937 129.031 40.1921 128.949 40.7673C128.805 41.6711 128.733 43.2733 128.733 45.5739C128.733 46.6831 128.569 47.4431 128.24 47.854C127.932 48.2442 127.378 48.4394 126.576 48.4394C125.837 48.4394 125.272 48.2956 124.882 48.008C124.512 47.7205 124.317 47.2788 124.296 46.6831V41.6916C124.296 40.377 124.266 39.2678 124.204 38.364C124.142 37.4396 124.04 36.2585 123.896 34.8206L123.773 33.5574C123.731 33.0438 123.896 32.6227 124.266 32.2941C124.656 31.9654 125.19 31.8011 125.868 31.8011C127.018 31.8011 127.634 32.3146 127.716 33.3417C127.758 33.8347 127.799 34.5331 127.84 35.4369C128.251 34.4714 128.826 33.6909 129.565 33.0952C130.325 32.4789 131.239 32.1708 132.307 32.1708Z" fill="#E2E7E9"/>
<path d="M142.767 47.9772C142.11 47.9772 141.566 47.8129 141.134 47.4842C140.703 47.1556 140.498 46.7139 140.518 46.1593L140.765 34.7898C140.785 34.2352 141.001 33.8038 141.412 33.4957C141.823 33.1671 142.357 33.0027 143.014 33.0027C143.692 33.0027 144.246 33.1671 144.678 33.4957C145.109 33.8244 145.315 34.2763 145.294 34.8514L145.048 46.1901C145.027 46.7448 144.801 47.1864 144.37 47.515C143.959 47.8232 143.425 47.9772 142.767 47.9772Z" fill="#E2E7E9"/>
<path d="M157.831 48.2545C155.222 48.2545 153.148 47.5767 151.607 46.2209C150.087 44.8447 149.327 42.9241 149.327 40.4592C149.327 38.857 149.666 37.4294 150.344 36.1763C151.022 34.9233 151.977 33.9476 153.209 33.2492C154.462 32.5508 155.931 32.2016 157.615 32.2016C159.32 32.2016 160.82 32.5611 162.114 33.28C163.408 33.999 164.404 35.0055 165.103 36.2996C165.822 37.5731 166.181 39.0316 166.181 40.6748C166.181 43.0782 165.431 44.9474 163.932 46.2826C162.432 47.5972 160.399 48.2545 157.831 48.2545ZM157.769 44.8344C159.022 44.8344 159.988 44.4852 160.666 43.7868C161.364 43.0679 161.713 42.01 161.713 40.6132C161.713 39.237 161.374 38.0661 160.697 37.1007C160.039 36.1147 159.063 35.6217 157.769 35.6217C156.557 35.6217 155.592 36.0634 154.873 36.9466C154.154 37.8299 153.795 39.011 153.795 40.49C153.795 41.9279 154.144 43.0165 154.842 43.756C155.541 44.475 156.516 44.8344 157.769 44.8344Z" fill="#E2E7E9"/>
<path d="M174.852 48.4394C173.435 48.4394 172.171 48.1107 171.062 47.4534C169.953 46.7756 169.162 45.882 168.69 44.7728C168.566 44.4647 168.505 44.2079 168.505 44.0025C168.505 43.5711 168.731 43.1603 169.183 42.77C169.635 42.3798 170.128 42.1846 170.662 42.1846C170.97 42.1846 171.216 42.2565 171.401 42.4003C171.586 42.5236 171.73 42.6468 171.833 42.77C171.935 42.8728 171.997 42.9446 172.017 42.9857C172.613 43.6841 173.106 44.1771 173.496 44.4647C173.887 44.7523 174.359 44.896 174.914 44.896C175.427 44.896 175.869 44.7933 176.239 44.5879C176.608 44.362 176.793 44.0539 176.793 43.6636C176.793 43.2322 176.578 42.8933 176.146 42.6468C175.715 42.4003 175.016 42.123 174.051 41.8149C172.983 41.4451 172.11 41.0959 171.432 40.7673C170.775 40.4386 170.189 39.9559 169.676 39.3191C169.183 38.6618 168.936 37.8299 168.936 36.8234C168.936 35.8169 169.224 34.9541 169.799 34.2352C170.374 33.4957 171.134 32.9309 172.079 32.5406C173.044 32.1503 174.082 31.9551 175.191 31.9551C176.382 31.9551 177.409 32.1811 178.272 32.633C179.155 33.0644 179.823 33.6498 180.275 34.3893C180.727 35.1082 180.953 35.8785 180.953 36.7001C180.953 37.2548 180.799 37.6758 180.491 37.9634C180.183 38.251 179.669 38.3948 178.95 38.3948C178.313 38.3948 177.872 38.2921 177.625 38.0867C177.399 37.8813 177.255 37.5937 177.194 37.2239C177.132 36.7104 176.968 36.2996 176.701 35.9915C176.454 35.6834 175.951 35.5293 175.191 35.5293C174.616 35.5293 174.164 35.632 173.835 35.8374C173.527 36.0428 173.373 36.3304 173.373 36.7001C173.373 37.152 173.589 37.5012 174.02 37.7477C174.472 37.9942 175.191 38.2613 176.177 38.5488C177.225 38.8775 178.087 39.2062 178.765 39.5348C179.443 39.8429 180.028 40.3154 180.521 40.9522C181.014 41.5684 181.261 42.39 181.261 43.4171C181.261 44.5879 180.932 45.5534 180.275 46.3134C179.618 47.0734 178.796 47.6177 177.81 47.9464C176.824 48.2751 175.838 48.4394 174.852 48.4394Z" fill="#E2E7E9"/>
<path d="M28.3245 6.74093C30.1321 6.74093 31.5289 7.37771 32.5149 8.65126C33.5214 9.90427 34.0247 11.7632 34.0247 14.2282C34.0247 14.2282 33.7618 21.2175 33.6914 22.4857C33.6209 23.7538 32.8859 35.3239 32.8859 35.3239C32.7626 37.5705 32.7626 38.9699 32.7626 40.9213C32.7626 41.9279 32.8037 42.6673 32.8859 43.1398C32.9886 43.6122 33.1734 43.9409 33.4405 44.1258C33.728 44.3106 34.1697 44.4031 34.7654 44.4031C36.0389 44.4031 38.2368 44.1155 41.3591 43.5403C41.4618 43.5198 41.6056 43.5095 41.7904 43.5095C42.3245 43.5095 42.7456 43.7149 43.0537 44.1258C43.3824 44.516 43.5467 44.9782 43.5467 45.5123C43.5467 46.601 42.7559 47.2891 41.1742 47.5767C39.7569 47.8437 38.6785 48.0286 37.939 48.1313C37.22 48.2134 36.306 48.2545 35.1967 48.2545C33.1837 48.2545 31.7047 48.0388 30.7599 47.6075C29.8355 47.1761 29.2193 46.4572 28.9112 45.4507C28.603 44.4441 28.449 42.8933 28.449 40.7981C28.449 38.4359 28.5517 36.2688 28.7571 34.2968C28.983 32.3249 29.2536 25.9546 29.5468 21.813C29.8399 17.6713 29.557 14.1974 29.557 14.1974C29.557 12.6979 29.3926 11.6503 29.064 11.0546C28.7353 10.4589 28.2218 10.161 27.5234 10.161C26.9277 10.161 26.4552 10.4281 26.106 10.9621C25.7569 11.4962 25.459 12.5335 25.2125 14.0741C25.0687 14.9368 24.9968 15.892 24.9968 16.9396L25.0276 20.9143C25.0276 21.4484 24.8222 21.8592 24.4114 22.1468C24.0211 22.4138 23.4871 22.5473 22.8092 22.5473C22.1108 22.5473 21.5562 22.4035 21.1454 22.116C20.7551 21.8284 20.5599 21.4278 20.5599 20.9143C20.5599 16.6418 20.4983 13.3141 20.3751 10.9313C20.3545 10.6848 20.2929 10.4589 20.1902 10.2535C20.108 10.0275 20.0053 9.8221 19.8821 9.63723C19.7588 9.45236 19.6664 9.30857 19.6048 9.20587C19.4815 8.97992 19.4199 8.75396 19.4199 8.52801C19.4199 8.09665 19.6664 7.6961 20.1594 7.32636C20.6729 6.93608 21.1659 6.74093 21.6384 6.74093C21.8643 6.74093 22.08 6.81283 22.2854 6.95662C22.5114 7.10041 22.7578 7.33663 23.0249 7.66528C23.2508 7.95286 23.4152 8.20963 23.5179 8.43558C23.6206 8.66153 23.6719 8.91829 23.6719 9.20587V9.48317C24.0417 8.70261 24.5963 8.05557 25.3358 7.54204C26.0958 7.00797 27.092 6.74093 28.3245 6.74093Z" fill="#E2E7E9"/>
<path d="M46.3913 28.5714C46.4127 28.7133 46.4668 28.8482 46.5493 28.9655C46.6594 29.1206 46.815 29.2376 46.9945 29.3004L47.8826 29.5906C48.0651 29.6491 48.2303 29.7501 48.3669 29.8866C48.5023 30.0219 48.6044 30.1871 48.6664 30.3706L48.9498 31.2458C49.0097 31.4289 49.1258 31.5884 49.2815 31.7019C49.4372 31.8154 49.6247 31.877 49.8174 31.878C50.0101 31.879 50.1982 31.8194 50.3551 31.7076C50.5121 31.5958 50.6298 31.4374 50.6916 31.255L50.9808 30.3683C51.0431 30.1898 51.1458 30.028 51.281 29.8957C51.4161 29.7634 51.5801 29.6641 51.7599 29.6055L52.6343 29.3222C52.8175 29.2626 52.9773 29.1468 53.0911 28.9913C53.2048 28.8358 53.2667 28.6484 53.2679 28.4558C53.2692 28.2631 53.2098 28.075 53.0981 27.918C52.9865 27.761 52.8282 27.6431 52.6458 27.581L51.7588 27.292C51.5777 27.2308 51.4133 27.1285 51.2783 26.9932C51.1433 26.8579 51.0415 26.6932 50.9808 26.512L50.6939 25.6357C50.6364 25.4512 50.522 25.2895 50.3672 25.1737C50.2123 25.058 50.0248 24.9941 49.8314 24.9912C49.6381 24.9883 49.4487 25.0464 49.2904 25.1574C49.1321 25.2684 49.0129 25.4266 48.9498 25.6093L48.6606 26.4948C48.601 26.676 48.5 26.8412 48.3623 26.9766C48.2263 27.1112 48.0615 27.2132 47.8803 27.2748L47.006 27.5593C46.8702 27.6058 46.7472 27.6832 46.6466 27.7854C46.546 27.8877 46.4705 28.0119 46.4262 28.1483C46.3819 28.2848 46.37 28.4296 46.3913 28.5714Z" fill="#E2E7E9"/>
<path d="M139.949 28.5714C139.971 28.7132 140.025 28.8482 140.107 28.9655C140.218 29.1205 140.373 29.2376 140.553 29.3004L141.441 29.5906C141.623 29.6491 141.788 29.7501 141.925 29.8865C142.06 30.0219 142.163 30.1871 142.224 30.3706L142.508 31.2458C142.568 31.4288 142.684 31.5884 142.84 31.7019C142.995 31.8154 143.183 31.877 143.376 31.878C143.568 31.879 143.756 31.8194 143.913 31.7076C144.07 31.5957 144.188 31.4374 144.25 31.2549L144.539 30.3683C144.601 30.1898 144.704 30.028 144.839 29.8957C144.974 29.7634 145.138 29.6641 145.318 29.6055L146.192 29.3222C146.376 29.2626 146.535 29.1468 146.649 28.9912C146.763 28.8357 146.825 28.6484 146.826 28.4558C146.827 28.2631 146.768 28.075 146.656 27.918C146.545 27.761 146.386 27.6431 146.204 27.581L145.317 27.292C145.136 27.2308 144.971 27.1285 144.836 26.9932C144.701 26.8579 144.6 26.6932 144.539 26.512L144.252 25.6357C144.195 25.4511 144.08 25.2895 143.925 25.1737C143.77 25.058 143.583 24.9941 143.39 24.9912C143.196 24.9882 143.007 25.0464 142.849 25.1574C142.69 25.2684 142.571 25.4266 142.508 25.6093L142.219 26.4948C142.159 26.676 142.058 26.8412 141.92 26.9766C141.784 27.1112 141.62 27.2132 141.438 27.2748L140.564 27.5592C140.428 27.6057 140.305 27.6832 140.205 27.7854C140.104 27.8877 140.029 28.0119 139.984 28.1483C139.94 28.2847 139.928 28.4296 139.949 28.5714Z" fill="#E2E7E9"/>
</svg>
